<?xml version="1.0" standalone="no"?><!DOCTYPE svg PUBLIC "-//W3C//DTD SVG 1.1//EN" "http://www.w3.org/Graphics/SVG/1.1/DTD/svg11.dtd"><svg t="1589167446560" class="icon" viewBox="0 0 1024 1024" version="1.1" xmlns="http://www.w3.org/2000/svg" p-id="3790" xmlns:xlink="http://www.w3.org/1999/xlink" width="200" height="200"><defs><style type="text/css"></style></defs><path d="M838.82 944.91H184.9c-8.17 0-14.86-6.69-14.86-14.86V97.78c0-8.17 6.69-14.86 14.86-14.86h653.93c8.17 0 14.86 6.69 14.86 14.86v832.27c0 8.17-6.69 14.86-14.87 14.86z" fill="#949BA6" p-id="3791"></path><path d="M229.48 201.81h564.76v208.07H229.48z" fill="#FFC600" p-id="3792"></path><path d="M229.48 201.81h564.76v44.59H229.48z" fill="#FFA100" p-id="3793"></path><path d="M582.45 677.39H441.27c-2.23 0-3.72-1.49-3.72-3.72V532.49c0-2.23 1.49-3.72 3.72-3.72h141.19c2.23 0 3.72 1.49 3.72 3.72v141.19c-0.01 2.23-1.5 3.71-3.73 3.71zM374.39 677.39H233.2c-2.23 0-3.72-1.49-3.72-3.72V532.49c0-2.23 1.49-3.72 3.72-3.72h141.19c2.23 0 3.72 1.49 3.72 3.72v141.19c-0.01 2.23-1.49 3.71-3.72 3.71zM582.45 885.46H441.27c-2.23 0-3.72-1.49-3.72-3.72V740.56c0-2.23 1.49-3.72 3.72-3.72h141.19c2.23 0 3.72 1.49 3.72 3.72v141.19c-0.01 2.22-1.5 3.71-3.73 3.71zM790.52 885.46H649.33c-2.23 0-3.72-1.49-3.72-3.72V532.49c0-2.23 1.49-3.72 3.72-3.72h141.19c2.23 0 3.72 1.49 3.72 3.72v349.26c0 2.22-1.49 3.71-3.72 3.71z" fill="#717582" p-id="3794"></path><path d="M645.62 840.87v29.72c0 8.17 6.69 14.86 14.86 14.86h118.9c8.17 0 14.86-6.69 14.86-14.86v-29.72H645.62zM437.55 840.87v29.72c0 8.17 6.69 14.86 14.86 14.86h118.9c8.17 0 14.86-6.69 14.86-14.86v-29.72H437.55z" fill="#515560" p-id="3795"></path><path d="M374.39 885.46H233.2c-2.23 0-3.72-1.49-3.72-3.72V740.56c0-2.23 1.49-3.72 3.72-3.72h141.19c2.23 0 3.72 1.49 3.72 3.72v141.19c-0.01 2.22-1.49 3.71-3.72 3.71z" fill="#717582" p-id="3796"></path><path d="M229.48 840.87v29.72c0 8.17 6.69 14.86 14.86 14.86h118.9c8.17 0 14.86-6.69 14.86-14.86v-29.72H229.48zM229.48 632.81v29.72c0 8.17 6.69 14.86 14.86 14.86h118.9c8.17 0 14.86-6.69 14.86-14.86v-29.72H229.48zM437.55 632.81v29.72c0 8.17 6.69 14.86 14.86 14.86h118.9c8.17 0 14.86-6.69 14.86-14.86v-29.72H437.55z" fill="#515560" p-id="3797"></path><path d="M645.62 142.36m-14.86 0a14.86 14.86 0 1 0 29.72 0 14.86 14.86 0 1 0-29.72 0Z" fill="#DFE1E4" p-id="3798"></path><path d="M586.17 157.22H229.48c-8.17 0-14.86-6.69-14.86-14.86s6.69-14.86 14.86-14.86h356.69c8.17 0 14.86 6.69 14.86 14.86s-6.69 14.86-14.86 14.86zM794.24 157.22h-89.17c-8.17 0-14.86-6.69-14.86-14.86s6.69-14.86 14.86-14.86h89.17c8.17 0 14.86 6.69 14.86 14.86s-6.69 14.86-14.86 14.86zM318.65 603.08h-29.72c-8.17 0-14.86-6.69-14.86-14.86s6.69-14.86 14.86-14.86h29.72c8.17 0 14.86 6.69 14.86 14.86s-6.68 14.86-14.86 14.86z" fill="#DFE1E4" p-id="3799"></path><path d="M734.79 365.29H288.93c-8.17 0-14.86-6.69-14.86-14.86s6.69-14.86 14.86-14.86h445.86c8.17 0 14.86 6.69 14.86 14.86s-6.69 14.86-14.86 14.86z" fill="#FFEEB2" p-id="3800"></path><path d="M526.72 603.08H497c-8.17 0-14.86-6.69-14.86-14.86s6.69-14.86 14.86-14.86h29.72c8.17 0 14.86 6.69 14.86 14.86s-6.68 14.86-14.86 14.86zM318.65 811.15h-29.72c-8.17 0-14.86-6.69-14.86-14.86 0-8.17 6.69-14.86 14.86-14.86h29.72c8.17 0 14.86 6.69 14.86 14.86 0.01 8.17-6.68 14.86-14.86 14.86zM526.72 811.15H497c-8.17 0-14.86-6.69-14.86-14.86 0-8.17 6.69-14.86 14.86-14.86h29.72c8.17 0 14.86 6.69 14.86 14.86 0 8.17-6.68 14.86-14.86 14.86zM734.79 603.08h-29.72c-8.17 0-14.86-6.69-14.86-14.86s6.69-14.86 14.86-14.86h29.72c8.17 0 14.86 6.69 14.86 14.86s-6.69 14.86-14.86 14.86z" fill="#DFE1E4" p-id="3801"></path><path d="M794.24 68.05H229.48c-40.87 0-74.31 33.44-74.31 74.31v743.1c0 40.87 33.44 74.31 74.31 74.31h564.76c40.87 0 74.31-33.44 74.31-74.31v-743.1c0-40.87-33.44-74.31-74.31-74.31z m0 862H229.48c-24.52 0-44.59-20.06-44.59-44.59V484.19h401.27c8.17 0 14.86-6.69 14.86-14.86s-6.69-14.86-14.86-14.86H184.9v-312.1c0-24.52 20.06-44.59 44.59-44.59h564.76c24.52 0 44.59 20.06 44.59 44.59v312.1H705.07c-8.17 0-14.86 6.69-14.86 14.86s6.69 14.86 14.86 14.86h133.76v401.27c-0.01 24.52-20.07 44.59-44.59 44.59z" fill="#090418" p-id="3802"></path><path d="M809.1 409.88V201.81c0-8.17-6.69-14.86-14.86-14.86H229.48c-8.17 0-14.86 6.69-14.86 14.86v208.07c0 8.17 6.69 14.86 14.86 14.86h564.76c8.17 0 14.86-6.69 14.86-14.86z m-29.72-14.87H244.34V216.67h535.03v178.34z" fill="#090418" p-id="3803"></path><path d="M645.62 469.32m-14.86 0a14.86 14.86 0 1 0 29.72 0 14.86 14.86 0 1 0-29.72 0Z" fill="#090418" p-id="3804"></path><path d="M571.31 513.91h-118.9c-16.35 0-29.72 13.38-29.72 29.72v118.9c0 16.35 13.38 29.72 29.72 29.72h118.9c16.35 0 29.72-13.38 29.72-29.72v-118.9c0-16.34-13.37-29.72-29.72-29.72z m-118.9 148.62v-118.9h118.9v118.9h-118.9zM363.24 513.91h-118.9c-16.35 0-29.72 13.38-29.72 29.72v118.9c0 16.35 13.38 29.72 29.72 29.72h118.9c16.35 0 29.72-13.38 29.72-29.72v-118.9c0-16.34-13.37-29.72-29.72-29.72z m-118.9 148.62v-118.9h118.9v118.9h-118.9zM571.31 721.98h-118.9c-16.35 0-29.72 13.38-29.72 29.72v118.9c0 16.35 13.38 29.72 29.72 29.72h118.9c16.35 0 29.72-13.38 29.72-29.72V751.7c0-16.35-13.37-29.72-29.72-29.72zM452.41 870.6V751.7h118.9v118.9h-118.9zM779.38 513.91h-118.9c-16.35 0-29.72 13.38-29.72 29.72V870.6c0 16.35 13.38 29.72 29.72 29.72h118.9c16.35 0 29.72-13.38 29.72-29.72V543.63c0-16.34-13.38-29.72-29.72-29.72zM660.48 870.6V543.63h118.9V870.6h-118.9zM363.24 721.98h-118.9c-16.35 0-29.72 13.38-29.72 29.72v118.9c0 16.35 13.38 29.72 29.72 29.72h118.9c16.35 0 29.72-13.38 29.72-29.72V751.7c0-16.35-13.37-29.72-29.72-29.72zM244.34 870.6V751.7h118.9v118.9h-118.9zM110.59 305.84c-8.17 0-14.86 6.69-14.86 14.86v356.69c0 8.17 6.69 14.86 14.86 14.86s14.86-6.69 14.86-14.86V320.7c0-8.17-6.69-14.86-14.86-14.86z" fill="#090418" p-id="3805"></path><path d="M110.59 736.84m-14.86 0a14.86 14.86 0 1 0 29.72 0 14.86 14.86 0 1 0-29.72 0Z" fill="#090418" p-id="3806"></path><path d="M110.59 796.29m-14.86 0a14.86 14.86 0 1 0 29.72 0 14.86 14.86 0 1 0-29.72 0Z" fill="#090418" p-id="3807"></path><path d="M913.13 365.29m-14.86 0a14.86 14.86 0 1 0 29.72 0 14.86 14.86 0 1 0-29.72 0Z" fill="#090418" p-id="3808"></path><path d="M913.13 305.84m-14.86 0a14.86 14.86 0 1 0 29.72 0 14.86 14.86 0 1 0-29.72 0Z" fill="#090418" p-id="3809"></path><path d="M913.13 246.39m-14.86 0a14.86 14.86 0 1 0 29.72 0 14.86 14.86 0 1 0-29.72 0Z" fill="#090418" p-id="3810"></path></svg>