<?xml version="1.0" standalone="no"?><!DOCTYPE svg PUBLIC "-//W3C//DTD SVG 1.1//EN" "http://www.w3.org/Graphics/SVG/1.1/DTD/svg11.dtd"><svg t="1589377924585" class="icon" viewBox="0 0 1024 1024" version="1.1" xmlns="http://www.w3.org/2000/svg" p-id="3341" xmlns:xlink="http://www.w3.org/1999/xlink" width="200" height="200"><defs><style type="text/css"></style></defs><path d="M509.627 511.11m-447.36 0a447.36 447.36 0 1 0 894.72 0 447.36 447.36 0 1 0-894.72 0Z" fill="#E0E0D1" p-id="3342"></path><path d="M509.627 203.55c-185.302 0-335.52 150.218-335.52 335.52 0 74.107 24.075 142.565 64.762 198.084 3.401 3.733 35.66 37.014 73.052-0.378l39.541-39.541 39.541-39.541 39.541-39.541s23.163-22.872 23.163-79.083c0-30.884 25.036-55.92 55.92-55.92s55.92 25.036 55.92 55.92c0 0-3.624 52.296 23.163 79.083l29.835 29.835 9.706 9.705 29.815 29.816 9.726 9.726 24.772 24.772 10.77 10.77 3.998 3.998s39.066 38.724 73.12 0.282c40.645-55.503 64.693-123.924 64.693-197.988 0.002-185.302-150.216-335.519-335.518-335.519z" fill="#231F20" p-id="3343"></path><path d="M311.921 708.816c-50.598-50.598-81.894-120.497-81.894-197.706 0-154.419 125.181-279.6 279.6-279.6s279.6 125.181 279.6 279.6c0 77.209-31.295 147.108-81.894 197.706 0 0 39.066 38.724 73.12 0.282 40.645-55.503 64.693-123.924 64.693-197.988 0-185.302-150.218-335.52-335.52-335.52s-335.52 150.218-335.52 335.52c0 74.107 24.075 142.565 64.762 198.084 3.402 3.733 35.661 37.014 73.053-0.378z" fill="#C75C5C" p-id="3344"></path><path d="M509.627 231.51c-154.419 0-279.6 125.181-279.6 279.6 0 77.209 31.295 147.108 81.894 197.706l39.541-39.541c-40.478-40.477-65.514-96.398-65.514-158.166 0-123.535 100.145-223.68 223.68-223.68s223.68 100.145 223.68 223.68c0 61.767-25.036 117.688-65.514 158.166l24.772 24.772 10.77 10.77 3.998 3.998c50.598-50.598 81.894-120.497 81.894-197.706-0.001-154.419-125.182-279.599-279.601-279.599z" fill="#E0995E" p-id="3345"></path><path d="M509.627 287.43c-123.535 0-223.68 100.145-223.68 223.68 0 61.767 25.036 117.688 65.514 158.166l39.541-39.541c-30.359-30.359-49.136-72.299-49.136-118.624 0-92.652 75.108-167.76 167.76-167.76s167.76 75.108 167.76 167.76c0 46.325-18.777 88.265-49.136 118.623l29.815 29.816 9.726 9.726c40.478-40.477 65.514-96.398 65.514-158.166 0.002-123.535-100.143-223.68-223.678-223.68z" fill="#F5CF87" p-id="3346"></path><path d="M509.627 343.35c-92.652 0-167.76 75.108-167.76 167.76 0 46.325 18.777 88.266 49.136 118.624l39.541-39.541c-20.24-20.239-32.757-48.2-32.757-79.083 0-61.767 50.073-111.84 111.84-111.84s111.84 50.073 111.84 111.84c0 30.883-12.518 58.844-32.757 79.083l29.835 29.836 9.706 9.705c30.359-30.359 49.136-72.299 49.136-118.623 0-92.653-75.108-167.761-167.76-167.761z" fill="#76C2AF" p-id="3347"></path><path d="M509.627 399.27c-61.767 0-111.84 50.073-111.84 111.84 0 30.883 12.517 58.844 32.757 79.083 0 0 23.163-22.872 23.163-79.083 0-30.884 25.036-55.92 55.92-55.92s55.92 25.036 55.92 55.92c0 0-3.624 52.296 23.163 79.083 20.239-20.239 32.757-48.2 32.757-79.083 0-61.768-50.073-111.84-111.84-111.84z" fill="#4F5D73" p-id="3348"></path></svg>