<?xml version="1.0" standalone="no"?><!DOCTYPE svg PUBLIC "-//W3C//DTD SVG 1.1//EN" "http://www.w3.org/Graphics/SVG/1.1/DTD/svg11.dtd"><svg t="1588303541187" class="icon" viewBox="0 0 1092 1024" version="1.1" xmlns="http://www.w3.org/2000/svg" p-id="2091" xmlns:xlink="http://www.w3.org/1999/xlink" width="213.28125" height="200"><defs><style type="text/css"></style></defs><path d="M1058.133333 853.333333H456.0896L260.778667 1016.081067l-0.273067-0.341334A33.553067 33.553067 0 0 1 238.933333 1024a34.133333 34.133333 0 0 1-34.133333-34.133333v-136.533334H34.133333a34.133333 34.133333 0 0 1-34.133333-34.133333V34.133333a34.133333 34.133333 0 0 1 34.133333-34.133333h1024a34.133333 34.133333 0 0 1 34.133334 34.133333v785.066667a34.133333 34.133333 0 0 1-34.133334 34.133333zM1024 68.266667H68.266667v716.8h170.666666a34.133333 34.133333 0 0 1 34.133334 34.133333v97.792l148.821333-124.0064 0.273067 0.341333A33.757867 33.757867 0 0 1 443.733333 785.066667h580.266667V68.266667z" p-id="2092" fill="#ffffff"></path></svg>